/* XPM */
static char *_940effdb1cb4f84832da968fa3c72b0VQlLuLmKReZiY9ZL[] = {
/* columns rows colors chars-per-pixel */
"64 64 247 2 ",
"   c #553A34",
".  c #7C392B",
"X  c #673C34",
"o  c #793E34",
"O  c #6D342A",
"+  c #58423D",
"@  c #6B453B",
"#  c #7A463B",
"$  c #7C493D",
"%  c #764539",
"&  c #584A47",
"*  c #59514D",
"=  c #595858",
"-  c #4A4B4C",
";  c #684A48",
":  c #754B45",
">  c #7C4C44",
",  c #774C48",
"<  c #6D534C",
"1  c #62524B",
"2  c #74544D",
"3  c #7D524B",
"4  c #7A5549",
"5  c #6C5E5C",
"6  c #675955",
"7  c #735452",
"8  c #7B5553",
"9  c #7C5B54",
"0  c #755C5A",
"q  c #7D5C5A",
"w  c #745B54",
"e  c #68625D",
"r  c #7B6154",
"t  c #75625D",
"y  c #7B635D",
"u  c #776258",
"i  c #5A5E63",
"p  c #775F60",
"a  c #5B6565",
"s  c #6C6D6C",
"d  c #676666",
"f  c #756563",
"g  c #7A6463",
"h  c #7C6C6B",
"j  c #766A68",
"k  c #79726E",
"l  c #796D71",
"z  c #6B7878",
"x  c #737474",
"c  c #7B7373",
"v  c #747C7C",
"b  c #7B7C7C",
"n  c #787777",
"m  c #686E72",
"M  c #5C615F",
"N  c #3F3032",
"B  c #97290C",
"V  c #9A351A",
"C  c #952D12",
"Z  c #A5361A",
"A  c #B13D1C",
"S  c #8B3D2B",
"D  c #883A28",
"F  c #933D2B",
"G  c #993A25",
"H  c #883F31",
"J  c #A43D26",
"K  c #A6411E",
"L  c #8D412E",
"P  c #86422F",
"I  c #93442D",
"U  c #9C432C",
"Y  c #99462B",
"T  c #8C4533",
"R  c #8B4539",
"E  c #844A3C",
"W  c #8C4C3C",
"Q  c #864636",
"!  c #944433",
"~  c #9B4333",
"^  c #944A35",
"/  c #9B4D35",
"(  c #934C3C",
")  c #9B4C3B",
"_  c #96463B",
"`  c #94513E",
"'  c #9D523C",
"]  c #9E573B",
"[  c #8D503D",
"{  c #A4482C",
"}  c #A24B34",
"|  c #A34A39",
" . c #A2533D",
".. c #A65539",
"X. c #B34A30",
"o. c #844C43",
"O. c #8C4D43",
"+. c #884C49",
"@. c #934D43",
"#. c #994D45",
"$. c #845244",
"%. c #8C5345",
"&. c #84544B",
"*. c #8C544B",
"=. c #8D5A4D",
"-. c #85594A",
";. c #945344",
":. c #9B5444",
">. c #9B5A44",
",. c #93554B",
"<. c #9A564A",
"1. c #945A4D",
"2. c #9B5B4C",
"3. c #935B45",
"4. c #845651",
"5. c #845B55",
"6. c #8C5B54",
"7. c #855E5B",
"8. c #8B5D5A",
"9. c #895653",
"0. c #935C53",
"q. c #9B5D53",
"w. c #935E5A",
"e. c #985855",
"r. c #874E50",
"t. c #A35343",
"y. c #A35C4B",
"u. c #A65847",
"i. c #A15D51",
"p. c #A55A55",
"a. c #A85447",
"s. c #98634B",
"d. c #83635C",
"f. c #8C635C",
"g. c #896556",
"h. c #936354",
"j. c #9C6254",
"k. c #94635B",
"l. c #9B645B",
"z. c #9B6A5C",
"x. c #976B58",
"c. c #946B55",
"v. c #A76549",
"b. c #A26353",
"n. c #A66657",
"m. c #AF6F55",
"M. c #925F61",
"N. c #846462",
"B. c #8B6463",
"V. c #836B64",
"C. c #8C6A64",
"Z. c #856D6A",
"A. c #8A6D6B",
"S. c #846468",
"D. c #946561",
"F. c #946B63",
"G. c #9B6B63",
"H. c #936E6A",
"J. c #9C6867",
"K. c #89726B",
"L. c #9D7164",
"P. c #93726C",
"I. c #9C756A",
"U. c #837473",
"Y. c #8B7574",
"T. c #837C7C",
"R. c #8B7B7B",
"E. c #887A75",
"W. c #937573",
"Q. c #947A75",
"!. c #937C7B",
"~. c #9A7A77",
"^. c #8C6E71",
"/. c #A36B64",
"(. c #A57469",
"). c #A67975",
"_. c #B1756D",
"`. c #7D827E",
"'. c #88817D",
"]. c #96817E",
"[. c #B18675",
"{. c #787C81",
"}. c #6C7880",
"|. c #837E81",
" X c #957F81",
".X c #748384",
"XX c #7C8384",
"oX c #7B8B8C",
"OX c #78878A",
"+X c #7C8E92",
"@X c #778B92",
"#X c #7D9394",
"$X c #6D8486",
"%X c #848485",
"&X c #8C8384",
"*X c #828689",
"=X c #848C8C",
"-X c #8A8B8C",
";X c #898887",
":X c #938583",
">X c #9B8483",
",X c #938C8B",
"<X c #9A8C8B",
"1X c #978887",
"2X c #88918F",
"3X c #98918D",
"4X c #858D92",
"5X c #978D91",
"6X c #849394",
"7X c #8C9393",
"8X c #84969A",
"9X c #8C9B9B",
"0X c #879898",
"qX c #949494",
"wX c #9B9394",
"eX c #949A9B",
"rX c #9B9B9C",
"tX c #969799",
"yX c #A38886",
"uX c #A39797",
"iX c #AB8F8E",
"pX c #97A19E",
"aX c #8C9EA2",
"sX c #949DA2",
"dX c #9B9EA1",
"fX c #A49EA3",
"gX c #8CA1A5",
"hX c #94A2A4",
"jX c #9BA3A4",
"kX c #92A5A9",
"lX c #9CAAAC",
"zX c #9AA6AA",
"xX c #9BACB1",
"cX c #97ACB1",
"vX c #98B0B5",
"bX c #A2A2A5",
"nX c #A4A5AA",
"mX c #A3ABAC",
"MX c #AAA7A9",
"NX c #B3AAAB",
"BX c #A6ADB2",
"VX c #A7B4B6",
"CX c #B3B6B8",
"ZX c #ADB0B2",
"AX c #ABA09E",
"SX c #B6BDC2",
"DX c #B4C3C6",
/* pixels */
"rX=X-XCXZXBXzXdXqXuXuXbXMXNXfXrXnXZXrXjXBXmXmXlXBXhXkXjXjX*X=XjXsXjXnXeX*Xx `.eXnXNXfXrXwXfXbXNXMXqX*XnXZXbXmXbXjXrXbXmXnXnXjXbX",
"d.d.0.>XdX>X>XQ.U.Q.Q.R.R.T.c d ;XCX}.z {.}.x H.P.A.Z.b 9X= < y r c.d.d.g.< =XuX0.0.0.=.,.P.uX).G.; 8 N.h U.H.q n wXd.f.k.j.).[.",
"I ;.2.A.6Xd.h.h.d.f U.E.b n m = v DX{.K.Q.H.6.0.k.M.9.c xXi < w g.x.z.x.m.; XX~.I ! F ! _ 7.,X).J.$.1.;.W ;.;.E Y.,XT U D H L I ",
"/ ' / Z.zXY.f.g.z.d.g.L.K.f d - v DXR.L.(.(.G.D.D.7.7.&XkXf g.x.c.L.(.z.c.6 +XA.! _ _ _ ;.0 1X).~.7.w.0.n.n.# ;.~.&XT / I T ^ ! ",
"(  .L E.VX^.g t d.g V.C.d.0 w & `.DX-XF._._.D.7.M.J.w.:XxXx.v.m.m.c.u g.=.w hXyX! _ I ^ ;.D.uX(. X).l.q.b.m.j.1.~.;XT { I G I I ",
"F.G.9 ;XeX; & - - * e e e < 1 * s VX7X9 k.8 7 ; , ; ; '.VXK.s.c.c.r 6 y r < 7XyXR R S ! @.4.;XW.B.3 *.+.> *.q.$.:XrX# T I U ` 1.",
"nXmX7X7X-Xj s k b '.3XrXeX7XqX;XqXeXrX{.x %X%X=XoXOX6XBXDXnXbXnX7X=XhXVXsX.X.X=XT.U.K.Z.R.5XdX-X;X,X,XwXwX,X&X;XzXzX7XT.!.NXCXhX",
"5 5 t N.N.d.C.C.K.K.].Q.].>XeX,X,XwXMXCXuX<X].iXiX~.).W.~.P.C.U.B.q T.mXwXV.C.g N.F.B.B.N.*XqXA.^. X).I.H.H.U.Z.!.W.F.B.=X7Xx d ",
"* 2 &.=.h.=.v.] v.s.v.s.s.h.b '.P.F.l.>Xf.E % 2 9.&.: &.7.2 : < 7 : K.mXw.:.y.*.,.y.2.i.:.K.Z.! Q . ( O.% Q O.o.% R ! U U.= & 1 ",
"2 6.j.l.z.s.s.v.m.s.s.b.x.g.'.;XL.k.*.;.o.%.%.d.B.5.3 =.d., : ; < ; T.xXz.2.=.1.=.6.l./.k.qXY.( %.W W ,.,.2.1.0.=.,.,.#.'.M & 2 ",
"j.j.m.n.j.v.3.s.m.m.v.v.j.-.'.;XG.2.2.2.%.( / ^ E o.E ^ Q # # # ;   k eXj.y.b.b.q.2.q.> & OXZ...>.3 f.f.5.l.6.0.q.%.O.;.,Xy > &.",
"$ $.=.$.&.=.4 4 s.s.3.3.s.=.`.XXQ.P.Q.uX>X~.(.(.I.~.!.A.K.R.W.Y.c T.eXeXt 4 -.%.$.X % & a .Xg ' 3.7 q 6.5.5.8 2 % # o.5.7X9 > : ",
"'.%XqXqXqX,XtX;Xc k c '.E.T.eXBXlXzX9XmXwXwX,X:X1X1X<X!.&XVXnX&XeXBXVXlX=Xv s v {..XOX8XaXzX%Xc &X,X5X,X5X;X%Xs j &X&Xx XX7X,X%X",
"R.'.&X;XqXwX|.,X7X`.U.W.P.P.C.C.F.C.XXE.) ( ^ ^ / ' ` ' >.=X X:.1.k.P.g C.G.F.H.A.eX7XY.Y.:X1X X!.&XqXdX&XI.).I.I./.l.b.x.CXuXY.",
"6.6.k.8.k.D.3 ].rXy 5.;.:.;.$.3 o.o.qX!.( ( W W / ) ;.>.&.6XR.2.;.2.y.=.0.i.q.y.:.K.V.G F F _ _ ) _ w.-Xg.Y { { K K { X...'.Z.> ",
"n.1.0.5.,.;.o.>XwX1.=.1.0.=.=.=.&.> -X X' :.%.;.W ` >.;.r VXl > 2.2.0.0.=.6.k.l.0.R.F.J { ! _ ) | | ( ;Xk./ / Y Y Y { / ^ E.P.>.",
"2.<.,.*.O.@.E T.-X&.1.2.<.&.&.,.&.2 b E.v.v.v.v.:.t.;.X 6 kX{.  > 2.1.q.j.l.k.k.0.R.(.X.{ #.a.) ~ J } >Xl.U } { J { { U L wXP.;.",
"( ;.O.W W o.w =Xv w $.W %.$.o.o.3 ; m T.%.=.1.=.6.,.4 6 z 9XhXv M * < 2 9 7.k.&.: T.P.G U ~ F G D # G R.A.T ! F F F F S . b d.( ",
"h T.h f h f oXhXb b c c b &Xh k k x 6X9X%Xb -X7X-X7XoXkXxXVXDXSXvXxXaX8XOX.X{.x %XhX=X6 1 6 6 6 T.=X* OX0Xx j j c f d s s oX;Xj ",
"1XwX:X&X=X=Xb 7X%X*XqX,X,XwXqX0X0XqX-X,XuX:X;X9XmX:XK.T.b E.yX>XQ.].~.Q.!.A.U.lXbXwX3XqXtX,X%X,XrXjX=X9XkXzXhXeXMXNXAXMXuXuXtX:X",
"> O._ U h.n %.:.%.%.:.) ) %.=.0 d.k.9 %.2.,.; < b k.6.2 @ > 2.,.;.( t.y././.P.7Xf.;.:.&.6.i.1.q.1.K..Xm m s f g q B.q B.8 9.*.: ",
"> O.) U h.x E Y I ! S L L P Q $ % 5.C.*.6.0.1.&.XXF.1.6., &.l.j.6.;.2.6.k.J.W.9X0.( %.*.*.=.0.j.q.].*X6 = 5 3 &.; 7 7 > o.^ ! # ",
"q.2./ U f.T.Q ..} I S I / / ^ / ) %.6.6.5.0.2.f.6XH.n.j.l.m.n.j.1.3.,.9.=.0.V.=Xj.:.=.0.6.6.k.k.l.].-X5.1 < 8 5.: > 6.&.%.2.1.,.",
"( R R S P.;Xo u.u.Y S )  .:.:. .t.n.W.N.0.=.=.6.2X5 @ j.m.m.4.: 6.+.O.;.1.w.d.=Xh.:.*.0.n.q.0.w.6.R.=X8.B.5.3 7.-.=.q.0.w.w.0.;.",
"i.b.(.l.W..XV././.y.:.n.b.l.F.k.j.n.).<X(.P.!.yXtXd - & H.V.- 2 l.k.z.4.5.6.q z 6 4 9 w 9 d.6.9 5 s m f W.Q.C.D.z.G.(.yX[.).(._.",
"wXrXdXtX7X9XeXqXeXrX;X-X-X=X-X-X|.-XqXeXhXlXcXvXhXeXaX#X8X6X0X6XzXlXhX6X0X6X9X0XoXkXzX0X0X9X9XaXkXkXaXgX6X6XtXnXnX*XOXeXdXfXtXrX",
"h 7X0Xx T.R.Y.R.b T.b -XZ.f.k.0.w.8.7.c 0X=X|.&XT.%X|.%Xs z mX<X:X1X:X,X7X*XhX4Xs 3X,X&X&XhX%XP.!.&X;X-X|.s %XzX&Xf g 5 7.5.q 0 ",
"*.;X|.7 &.; %.y.4.< f.3Xz.) _ ! ~ | | K.#X5 q f.F.L.c.x.g.m &X:.:.2.1.q.w.7 9XOX& 4 < h.2.R.XX&.;.,.6.0.,.,.1X;XE :.;.$.,.<.,.<.",
"h.qXW.2.0.: %.<.%.o.3 XXH.q.,.R ! @.) =.oXs k.L.k.(.[.[.z.Z.:X;.6.k.k.D.B.q kXOX6 9 g.c.q.!.-X;.:.2.<.2.i.2.&XqX:.;.=.=.*.6.0.j.",
"k.qXE.b.b.=.y.:.t.| # v A.,.,.W ! _ | t.v s h.x.L.x.(.[.s.y U.y.b.0.w.k.w.N.lX%Xs.s.m.z.l.!.-X,.2.y.q.i.=.*.U.;X:.;.=.=.=.0.6.k.",
"8 -XE.-.g.&.$.;.R # @ =Xh o.<.R @.#.@.2 .Xa   + 2 & + h.1.r U.v.v.6.6.8.5.9 lX,X>.s.s.h.9.T.;X1.,.2.j.j.q.y.Z.`.*.h.w.=.1.1.5.5.",
"-XXXb x s d d d d v 9X0Xv c >X'.1XyX<XOXgX8Xm a = a m XX;X=X=XK.E.`.=X*X=X7XxXeXE.'.'.s s 9X=X5 = * & * & & a v {.qXwX,X<X,X=X7X",
"dXqX2XqXwXuXAXuXAXwX<X'.XXcX$Xz ;X3XwXeXsXsXkX7X;XoX=XqX=X&X<X-XoXjXZXnXhXgXOX4X6XsX9X4X6XhXzX7X0X=X7X=X%X=X=X-X7X6X4X0XqXeXqXwX",
"L.I.A.N.L.F.g.g.x.h.h.h.r 2XT.t j.j.2.O.W >.z.2.y.-.6.y.;.;.t.:.&.jXuXd.D.d.6.5.q 0.0.w.6.R.W.i.0.u.p.a.a.t.t.| <.=Xv G./.(.(./.",
"D.F.d.t t u u r g.g.c.c.d.`.).2./ ..Y L Y Y U { / ( / ../ / ' ( P %X].=.j.2.j.6.0.q.2.q.<.f.3 S D D G G D G G Z ) .Xx l.F.C.F.z.",
"g N.0 t g d.d.d.C.V.h V.r `.I.../ ^ { T Y { / } / T ^ / / T ( ( 4 =XyX2.j.1.6.6.*.&.w.k.q.P.0.G G D D G G G G J W #Xn 8.G.B.x.k.",
"7 5.x.L.L.L.C.d e d a = e 7XR.v.{ / T T I { { { ..( I } R Q $ 4 n 9X).y.2.2.,.1.q.q.w.0.,.V.2.Z J Z V V V G G J G %X.X& 7 7.8.5.",
"6 5 N.C.j t e a a a s m .XzXtXV.r 2 6 6 t d.d.g.g.9 E : d t z z #X0XV.g.1.y.0.f.8.8.f.5.8.0 E S D L % @ < < # L H j 9X6X- * t 6 ",
"oX0X0X6XhXhXkXkXgXgXzXlX6X+X6X.X8X#X0XgXgXkXgXgXgX8XoX#XaXhXgX@X0XkXoX#XoXb XXoXoX+X6X=X7X*Xb T.k '.=X2X9XhX9XoXOXkXkXVX8Xz @X6X",
"2X=XT.R.>XyXyX1X&X&XT.8X=X].~.P.W.:X=X7X;XjX4Xl R.T.,X&X*XaX=X.XOXb T.%X*XXX{.-XmXdXwX&X7X&Xl.2.:.:.;.b.n.3X9Xb !.>XY.R.Q.V.Y.>X",
"-XC.;.,.:.:.2.1.,.,.A.aXF.n.m.v.y.>.h.h.2.,X%X: 7 &.%.@.*.7.0 s z w._.q.*.*.4.4.4.;.! T c h.A Z C B B B Z h.OX&.) ~ ! U { } / ' ",
"qXG. .2.=.1.1.j.b.:.C.hXk.g.h.n.1.$. . .y.qXOX&.t &.%.O.( O.&.v v =.:.j.1.1.2.,.> @.#.! U.j.V V V C C V V g.OX-. .) ( ) / / / ) ",
"=XF.) :.2.1.1.2.1.:.f.0X6 d.z.m.y.' ' ;.3.0X{.*.8 , :.;.@.@.&.x +XZ.l.D.w.j.6.q.q.,.*.R '.z.Z V C C C V J x.+X9 y.y.' :.>.E < 6 ",
".Xf.U W ^ ^ ( %.;.R k.cX0 &.3 $ E :.` ( ( 7X{.: : # Q R T T o 6 +Xg f.f.5.w.9.*.O.R R o.2Xz.Z B B C B C G Y.6X& X Q o R ` T 9 x ",
"`.j r t 0 e e 6 y f ,XxXT.f 5 a m Z.P.I.H.OXOX0 0 e j s h q 6 z +X%XR.U.Q.W.B.0 N.9 ; 6 rX:X-.4 : : > 4 e `.oX$Xa = 6 6 0 3 < f ",
"'.'.'.b *XtXMX;XqX,X,X,X<X,X-X%XzXhX7XtXrX-X7X;XqX0X=XrXuX,X%XqX=XrXqX;XrXmX1X!.yX~.:X,XrX<X].].E.E.&X&X1X<X<XwX,XqXqX9X7Xn v ;X",
"t.y.n.z.(._._.(.n.l.h.8.j.l.w.7 x f.;.%.;.2.y.1.0.j.0.j.,.0.f.j.l.j.&.: 9 qXz.t.) |  .2.A.~.b.2.;.1.q.>.>.b./ ' b.n.0.&XW.) q.y.",
"( >.j.z.F.k.6.q.=.&.7.5.3 7.8.p *X;.%.*.:. .:.%.%.y.b.i.*.q.0.1.1.=.1.,.C.sXH.q.,.( _ *.4.N.G.:./ / ( ) } / S Y  .t.) :XP.F T ^ ",
"l.q.1.k.f.7.5.9.$.> 2 < 2 5.j.N.=X%.,.0.@.) ;.%.%.$.j.n.1.j.b.j.l.k.q.<.F.9XZ.1.0.,.) *.4.$.%.^ ! I L I ! I S S ~ } ' ,XN.G U _ ",
"p.O.% 3 &.> 3 +.$ % @ @ % : y.8.x >.y.,.:.;.$.# [ %.,.b.q.0.j.n.0.q.i.> < hXc o.@._ _ *.&.W I I I G V V F S S F F F I iXW.F ! #.",
"r.r.7 q N.N.B.B.6.5.B.Q.7.; 8 Z.=XN.t 1 7 7 f l 0 6 1 1 7 7 2 w 0 0 0 6 a 9Xv 6 t V.y B.f.*.E W ( W 1.;.W W W Q . o %  XR.> +.4.",
"R.R.1XrX&X].1XuXiXiXuXMXnXtXtX-X2XsXzXdXzXsXBXZXdXmXzX9XsX4XoX@X+X#X0X4X4XzXsX9XeXeX*X5XuXfXjXtX&X,XrXwX-X;X<XwX&XT.c f g h g h ",
"e.w.I.fXV.@.e.e.,.O.=.0.8.V.ZX^.*.D.D.F.l.2.0.@.) F.W.>X9XV.k.P.U.R.U.g U.7X0.1.;.W ( ` W !.BXT.5.9.5.&.2 &.,.k.:XrX^.a.u.p.a.t.",
"_ <.J.nXC.@.e.,.E O.e.q.<.9.nX8.S ~ } G G G G G G G F F.OXw ;.<.,.,.2.:.~.;XW ` :.:.^ I D Y.xX8 +.*.9.*.O.W _ @.A.,Xe.a.a.~ F { ",
"#.e.J.fXA.@.e.e.,.,.<.0.,.4.jXS.S } { G F L I ~ U U U L.+Xw :.2.<.2.2.,.Y.XXW ` 0.l.E Q T Y.BX8 9.0.1.O.%.@.R Q W.1Xt.t.| ~ S H ",
"@.+.B.MXh O.p.+.@.t.u.%.O.0 4XH.~ . o O . H ~ } } } D I.xXZ.:.2.2.i.1.1.F.b u.v.>.y.( ) T A.ZX&.,.1.2.o.W W Q % !.iX| X.J D . H ",
"q < g tXp : > r.+.*.,.0.D.5 XXF.%.5.F.k.o.Q E W W E % E.lXc %.;.=.3 &.1.y v $.%.3.3.$.> X U.ZX2 > $.&.> $.*.5.8 <XfXD.q.0.7.A.k.",
"&X|.<XuX XR.&X<XwX5XwXdXBXqXXX7XeXnXSXSXSXdXeX7XeX7XeXeXsXOX-X-X*Xv v m a OXOXz z .XOX+X7XZXCXeX*X-X*X{.tXqXwX5X<X<X].R.T.T.jXnX",
"o.*.p.n.w.w.J.uX,Xh j j g 9 y U.T.V.Y.&X!.R.c 7XrXY.t d.Q.U.Z.A.I.(.(.P.d nXMXB.L.I.Q.~.:X:X!.Q.:XqX;XtX7Xk.,.;.R P T Q Q T y 8X",
"=.( ) ! T ) <.5X%X$.# $.> 3 6.5.3 # $.5.% X + oX!.' ;.;.:.;.:.' W t.u.2.1.,X1X^ ^ L T I R O.@.@.9.B.6.uXqXE ! H H L I T W ( t +X",
": ;. .) ) y.6.tXU.% $ ;.$.6.h.D.w.=.3 > : ; + =XiX .:.2.%.,.i.2.$.1.,.2.2.Q.Z.^ W E E Q W W ' :.,.w.0.uX4Xo.` E W W Q W ;.# ;XaX",
"N X :. .) t.n.fXT.# $ $.$.%.%.b./.J.C.d.> # X -XiX( ;.2.&.&.b.*.@ &.q.q.#.>X!...>.;.;.R ^ ' ^ W o.O.@.wX*XW v.` ' ( T ( %   XXkX",
"z - & @ % X o <X1X$.*.%.%.%.W ;.*.0.f.f.> % @ eXR.R ;.E $ *.,.> @ -.q.> o R.U.` >. .] Q R %.E R E $.< rXqX@ Q >.>.;.O.%.> - z 0X",
"VXjX+X.XXXz x wX;Xt f 0 g W.).W.W.~.~. X>XW.A.=X&XW.W.W. XiXyX~.!.5X1X0 p -XOXa 6 K.V.5 f U.K.9 t T.*XrXnX*Xd &XT.U.,X&XwX=X0XBX"
};
