/* XPM */
static char *download1706355302[] = {
/* columns rows colors chars-per-pixel */
"64 64 124 2 ",
"   c #49230D",
".  c #4D2713",
"X  c #522C15",
"o  c #542F1A",
"O  c #57311B",
"+  c #5A341C",
"@  c #5D381E",
"#  c #61371F",
"$  c #603B1E",
"%  c #5B3622",
"&  c #5E3924",
"*  c #633B24",
"=  c #6A3E26",
"-  c #643D2A",
";  c #6A3E2A",
":  c #664125",
">  c #6A4226",
",  c #66412C",
"<  c #6C422B",
"1  c #6E492E",
"2  c #72452D",
"3  c #724A2E",
"4  c #6D4531",
"5  c #6E4934",
"6  c #734632",
"7  c #794730",
"8  c #744A33",
"9  c #7A4D35",
"0  c #754E3A",
"q  c #7A4E3A",
"w  c #755035",
"e  c #7A5137",
"r  c #77513C",
"t  c #7C523B",
"y  c #7E593E",
"u  c #7D5541",
"i  c #7E5944",
"p  c #7F5C48",
"a  c #804E37",
"s  c #82553D",
"d  c #88563F",
"f  c #81593E",
"g  c #825642",
"h  c #895741",
"j  c #845A43",
"k  c #8A5C45",
"l  c #855D49",
"z  c #8B5E49",
"x  c #905E47",
"c  c #866145",
"v  c #8A6146",
"b  c #86614C",
"n  c #8C634B",
"m  c #8E694E",
"M  c #92644D",
"N  c #92694F",
"B  c #8C6551",
"V  c #8E6954",
"C  c #8F6F5A",
"Z  c #936552",
"A  c #986756",
"S  c #946B53",
"D  c #9A6C55",
"F  c #946D59",
"G  c #9B6E5A",
"H  c #967155",
"J  c #9B7057",
"K  c #96715B",
"L  c #9C725B",
"P  c #9D785E",
"I  c #A2745D",
"U  c #A8765F",
"Y  c #A2795E",
"T  c #9C7561",
"R  c #9E7963",
"E  c #A37662",
"W  c #A47A63",
"Q  c #AA7C65",
"!  c #A57D69",
"~  c #AB7E6A",
"^  c #B07E67",
"/  c #B07E6A",
"(  c #A68166",
")  c #AB8167",
"_  c #A7816B",
"`  c #AD826B",
"'  c #AE896F",
"]  c #B2846D",
"[  c #B8866F",
"{  c #B4886F",
"}  c #AD8572",
"|  c #AF8974",
" . c #B48671",
".. c #B88776",
"X. c #B58A73",
"o. c #BA8C75",
"O. c #B68D79",
"+. c #BB8E79",
"@. c #B59076",
"#. c #BB9077",
"$. c #B6907B",
"%. c #BD927B",
"&. c #BE997F",
"*. c #C18F78",
"=. c #C2947D",
"-. c #C3987F",
";. c #BD9581",
":. c #BF9984",
">. c #C49582",
",. c #C89786",
"<. c #C59A83",
"1. c #CA9D85",
"2. c #C79E8A",
"3. c #CB9E8A",
"4. c #CDA187",
"5. c #C7A18C",
"6. c #CDA18A",
"7. c #D1A48D",
"8. c #CBA590",
"9. c #D3A592",
"0. c #D5AA93",
"q. c #D9AB94",
"w. c #DCAF98",
"e. c #E0B39C",
/* pixels */
"Z F E ! ! ! E T E E A x A ^ / / W ^ ] o.o.....X.] D x D ^  ...o...*.>...>.>.>.;.,.~ ~ >.,./ ~ ..>.......} ~ ~ ! } u T ! C B p B ",
"B F T E ! ! ~ } / ..E A A ^ ../ =.*.*.=.*.o.o.*.*.] E ^ [ o.o.*.+.>.>.>.>.,.>.>.,...E ..>.,.,...................F u ! } ! ! C B ",
"B b b A C T ! R ! ! E Z x A Q ^ ] W W I I G I I ] [ / Q Q ] [ [ .. . ...../ / / E E A A A ....T ~ ~ ! ! ~ ~ ~ ~ T l A A B C B u ",
"5 5 5 5 u u u u g A A h s g x x z d s s s a a s n I U D M S L S E A A G A Z Z A A } ..~ E ~ ~ ~ A A l l g A l l F B B p u u u u ",
"; u u 4 4 5 u u 8 j n v g 9 9 9 9 8 8 9 t t t y 9 M J n j v v j B l u u g u g g 0 l A l u 0 q g g u 0 6 0 q q 4 5 u u u - 4 - o ",
"o o & % % % - 4 * < 8 8 < * + O * $ = : > > < 8 < y v y 9 t w 1 ; ; ; - ; 5 0 u u u 4 4 4 ; ; 4 ; 4 4 4 6 q 4 - u b u u ; - - o ",
"p B C B p p C C R ! ( ) _ W Y Y ( ( ( ( Y P ( ' X.&.&.#.@.$.#.@.;.;.;.R ! ;.,.,.5.:.;.;...O.O.;.......! / ..;...} O.T C C p b u ",
"C T ! T p C T _ _ W P ( ' { X.X.| X.' ) P K W @.X.X.| | @.&.&.&.;.2.:.! ! :.8.:.O.5.9.2.;.;.;.;.....! A A E ..;.~ O.R } ;.R T B ",
"p p C C C p p B R K K P N c S ( P ( @.@.W c c H P ' ( P ' @.' _ ~ ! T T T ! ! ! ;.;.;.! T A F ! / E B z B A Z z F ~ R F T V p p ",
", - u u p p u p i c V H S v c n V j c H R H c i v m v i b v v S F B C ! ~ T F T A b l p B l l l B B A ~ / T l u B B i 0 0 u r u ",
"- % & u p p 5 ; 8 r w 9 9 t e 8 j 3 2 k P L n e e y 9 8 w 3 2 y u ; u T T g 4 0 g ; ; u g q q u g g h A z u u g 0 4 4 0 5 1 , & ",
"- % - - 5 u u ; 8 8 < $ = 8 2 * 9 8 e k M n k h t 9 < 6 s t 7 s z l Z T A u 6 q g 4 u l Z u q z g g z A B u ; q 0 * 4 l 0 , & . ",
"p C T R ! ~ ~ ~ ] X.~ I I [ [ W ..X.=.=.+.o.*.,.-.X.I I =.1.<.<.,.3.9.3.3.3.,.,.;.~ ~ ,.9.3.,.9.,.>.,.3.2.;.} ;.$.R _ | ! R R V ",
"p C T ! T E ~ ;.X...E Z S ~ +.#.o.o.o.*.=.=.-.-.=.X.D S [ <.1.1./ ;.,.>.>.,.,.../ A A / 9.9.3.,.3.;./ ;...+.>.2.! T R ( ! K F B ",
"u B C B B B A A G I D x x D ~ ] U I I ^ ] ..] ^ Q [ Q A I ]  .] ~ / / / ~ / E E ! A A A ~ ../ / ! ~ ;...+...} W b G K K K V u r ",
"- 4 0 4 5 0 q 9 ; h I Q U M k d 9 s x M M M M x k ) [ I D D D M A z l z A l h z E E E A l g z A A A A u q g l g B L b 4 5 5 4 5 ",
"% - ; u ; u 4 u 6 g g l g q q 6 q g 6 ; 9 ; = h s s M I S e 9 h s s s s q 2 9 d g z k 9 6 6 8 2 ; ; 6 9 9 2 * * 0 j p u 4 5 u - ",
"% % - 4 ; - - u 0 0 g g l h g g g h h q q s g z k M D D M k h h Z n h s s d z S A D S n h h k h z h q 6 2 s t 8 0 h p 0 - - - o ",
"T T ! } T B T } >.;.;.>.,.3.3.,.>.3.,...Q X.<.-.7.q.w.7.7.q.0.7.7.>.X.W Q o.<.4.4.7.6.<.=.<.=.=.+.*.~ A L X.<.O.| +.;.} ! ! C C ",
"A B F F b u u l E T E E ~ ~ ~ ~ / / / ~ Z I o.o...X.X.X.+.-.=.=.%.#.[ W Q  .+.=.-.<.1.<.<.=.=.%.X.] W G I X.$.X.O.;.;.} ! ! ! T ",
"B B C T T l u l A G E E E T E E E M Y X.E I X.=.` Y I ] o. . .o.~ { +.X.] ] ] ) U Y ~ ) ) W I I W D D I I S n n ! T C p p p u u ",
"0 0 u B C B l u u g z l h g h z t 6 h E J h d z M d s Z D M z S S U { =...W D D M z M M S M x k M h M E U z 0 t b p p u p u 4 & ",
". O - 4 0 u 5 - ; ; - - ; ; ; 6 8 7 9 k M 9 = 2 9 2 2 2 9 8 7 9 2 8 d S M 9 2 2 9 3 2 7 8 2 2 7 2 2 9 k h 9 6 6 4 - & 4 u 4 - % ",
"4 r u u l B l u B z g g l z z l j M k k D D n D M M M z M L Y D W D I +.=.W G E Y M z z M M M D n S G D N M S Z u u u u p u u - ",
"V _ | ! R } | ! >.;.E Z E >.;.~ <.o.X.%.<.<.1.4.7.X.I o.7.q.7.7.q.7.1.4.q.w.q.1.3.] ~ -.7.1.-.<.7.1.7.1.+.1.,.E p F ! ! } } ! p ",
"V K R ! _ } ! W F ! ! A A / ....] ~ ] +.=.%.o.+.-. .~ ] X.X.o.+.] +.=.X.] [ #.=.q.] S Y +.=.+.+.) Q [ +. ...} l T l u b ! ! C u ",
"r 0 u B K V b l F F A A G ! E T D I Q ] ] W I I I Y W D M m D D D Q ] U D D I W Y D I W E D S L ~ I W ] W ~ ~ E ~ F F T T C p B ",
", & , 0 u r q 0 l g j z M l g 9 t h z n h s 9 t h I U S h k M Z z v z k k n h 9 s M Q ] I h d n n d q s e s z M F T ! ! p 4 4 p ",
"& , , & & , 8 0 - 6 g l u ; 6 s 9 q 9 8 2 = 7 t 2 h M t 2 2 9 7 d 9 6 2 q g s 8 s s s s t 9 9 9 8 2 2 2 0 ; ; ; p B B p 4 - % . ",
"r b b u 5 r l n l Z G E G Z A T G L A M z Z I ` X.=.=. .~ ` ] W W W L M M Y ] X.o.*.+.{ ] [ +.+.~ Q D M A A T ! ! } T B p p u - ",
"K R ( R K F T } +...~ ~ ..;... .+.o.[ W U [ =.1.=.3.4.<.-.-.<.-.1.1.=.{ ` +.6.q.+.4.q.4.-.-.<.<.1.1.) S ! ..;.2.;.:.;.} ! T T C ",
"b j V R K l b L T ~ ~ E T E ..+.~ ) Y S S I ) ` Q ) ` ] [ +.=.-.=.%.[ Q Q ` [ ] +.X.] ~ X.=.o.I [ =.W M ! ;...O...! ! } ! C B C ",
"y y y m P V j n s t z M n J W j S S W ) S m m N Y Y G M S I [ X.W W ] o.X.) ~ ] %.] Q ` ] S M W J S N I ) ) Y S K k n T V i i i ",
"w y y y H S j t j t s 9 7 t k h t y H W K M M v 9 s h d d h k h d z S I I M k d s d s k z h d M k v S S N d f s j t r i i i r 1 ",
"X & @ o 1 e 1 $ < 2 2 = ; = > 9 : : e v s t 8 3 7 9 9 9 9 9 9 7 2 9 d n z s 3 2 2 2 2 < 3 e 9 9 > 7 d d e 2 < < * - 5 1 & & %   ",
"y c c i H K S m i D S h S I I Q ] Q _ O. .{ o.'  .` I I E ] ] ~ ~ ~ ) ] ~ ~ W Q Q S M D I ~ ~ I I J I Y ) Y L H n l j v b b u - ",
"P ( ( ( ' ' ' %.` 1.{ N W <.7.0.%.X.@.5.<.4.9.6.7.>.[ ` #.6.7.1.6.6.1.1.1.4.7.7.6.~ Y *.1.6.7.4.4.4.-.4.4.4.-.-.$.K m _ ;.$.R b ",
"m V H P ( H H ' L X.Q z M ~ ] W { ( { %.%.#.$.o. .` W W [ *.o.] X.o.o.o.o.*.#.o.=.S D +.X.[ #.o.{ #.*.#.{ { { #.) S K _ T b p l ",
"i b m m H m N K s n D D n M v t S v N H n v v j D I Q Q Q Q I I G I Y I W W I D Q S W [ L N I S v N J J N N J Y m Z R L r , 1 0 ",
"@ 1 1 : 5 e 8 6 t 3 k S s 7 s f j y y j e t j j d M I I M z h h k z k d h n k s k h Q ~ s s z s v d 9 a v k a 3 l j i i r r 0 % ",
"@ @ X X @ @ @ * $ < 7 9 2 2 2 8 < : : * 1 3 9 6 7 g v h 9 2 7 k s 8 3 9 q 8 7 s 9 k k 8 2 9 s 3 e s s 7 2 3 w 8 0 s u 4 4 4 & o ",
"1 y m H m c v P J L E W W Q ~ ) O.#.X.) W W ) ` o.=.=.=.+.+.o.[ ] [ Q I Y ] %.=.X.+.=.%.X.X.[ ` =.) J N I { #.X.W | X.' ( R V r ",
"H ( ( ( P m K &.] ` ~ ` X.+.#.#.$.#.' Y D P X.4.=.6.q.7.1.4.4.1.1.7.<.W W =.4.=.<.=.%.-.=.o.#.1.=.#.) J J Q o.#.O.O.| ( R R K V ",
"P V c c m y y N L J I P I ~ ~ Q Y Y W W Y W @.5.] X.*.+.=.1.=...o.1.<.] Q X.[ L Q W E ] ] ` ] [ U ) ) Q L J L Y W W K m b V V b ",
"y r y m W m e r v n M Z N M Z S t j H ( Q J b n W I D G ] =.) A x S L D L D M h M D E ~ ] ) Y S k c v J U Y n t t y i y i u 5 - ",
": 1 e c m y w e : 2 7 7 2 < 2 2 y t j S J n t 9 9 9 s a 9 7 a a h h k Z S z d k 9 s 9 7 9 d s 7 f d M J I S k t u f i i i r 4 , ",
"@ 5 w 1 8 w 6 w 2 < ; < 2 7 3 7 e 3 3 t f t t s 2 7 s s 2 = 7 M h t t d s 9 8 9 d 2 = # 2 2 9 e 3 a d v s 2 < 1 1 < , , , & % O ",
"y H K P ' @.( S Y D S S I W W I W W ` =.-.o.` ` =.I M E *.=.*.*.%.=.=.=.=.*.+.o.W S S ] *.] Q ~ { ) ) #.-.%.` ) n S P ( _ L n p ",
"H P H m v N P Y ) ( N v I { o.) =.*.o.[ o.*.*.*.1.] M x ] =.*.*.o.*.*.[ ] *.-.*.^ I U =.4.*.*.-.=.*.*.*.#.o.o.#.P N m P ( ( H m ",
"y c c y c c v c v N M v N U ) U [ ^ U U U ^ ] ] [ [ U D U U ^ *.] ] *.*.*.[ ^ U ^ D D ^ *.[ *.=.] ) { { ] ) ) ) H N N N H H m c ",
"w y y y c c j y f N J N f f s a v k s s k x x h v U U D M d M U I M M I D M v S ^ D x v D D I D N N N J A D Z n v N m c y y w w ",
"$ : > 1 5 8 w 9 : e v d a e a s 9 a s d d s a a 7 d x M M s 2 7 s a 7 7 7 7 a s I M x a s a a 3 a f f a s s t 0 y v c w 1 3 1 $ ",
"o + % @ X o * 6 - 6 g u 9 w 9 e 2 9 e w 2 > 3 9 2 a d j v e > > = 7 7 > 2 e a 2 d d d 9 3 9 9 9 a 3 6 = ; ; ; ; 8 e i 4 : 1 : X ",
"H H K F n m T _ O.+.....{ ) ~ ~ { { o.) I L ] -.o.1.-.-.#.o.{ -.[ =.o.Y W %.=.{ *.-.=.#.{ o.=.-.o.o.~ T I ~ ~ ! } | | _ ( ( R m ",
"V B V B b i l F A F E E ~ ~  .o.{ #.#.] Y Q #.4.#.-.%.o.#.@.o.-.-.#.) D J ] #.{ o.#.#.#.{ ' { o.{ X.Q G T / } ! _ _ R ! R K K V ",
"C V C F V b l b l l b Z A G G E M H L L S D I ) ) ) Y W o.o.) Y ) Y I L Y Y P L N N I ) ` W J L U ) G Z A E ~ ! T T K F V b p b ",
"u p K K V u t r u 0 ; g z A l g e 3 w v J J M v d M v v H L N N H Y Y H M N N N y f k f f M J I Z A A E T h t P l i i p u p p 0 ",
"O & 0 i u 5 4 1 ; ; u q ; ; ; u a w 9 d v c e 3 3 w 3 2 a e 3 a > e k v v k j f f f f e e e a s ; 0 h z B 9 4 7 u 5 r r 4 , - O ",
". O , r r r 3 3 0 9 q 6 ; ; ; 6 a 3 7 a d e 3 > 2 1 > 2 9 2 $ 7 # 2 e k d e 7 8 d 7 2 7 e 3 > > u q u j g g f w ; - 4 6 , & %   ",
"V H K W _ ( ( ( ..! G G ~ ../ / ] ] ) [ %.%.#.[ I J I ) =.o.] *.=.o.*.-.-.o.o.#.o.U I [ *.{ ] ] ;./ X.....*.*.( Z b L _ ! P K b ",
"V H V H H ( H J I M s d A  . .Q U ^ ) ] [ *.*.*.S M x I *.*.[ *.[ ] [ o.o.] [ =.*.I D ^ *.o.[ *.~ Q o.*.{ { ) v c y m H J H V c ",
"c c c c c N N N H J H v z A I G D U I I I I I I ] U M x I U I I D M D U I D D I ^ U D U U ^ U ) E E ~ W ( ) Y v H m m ( H v c y ",
"$ : : : > 3 3 3 c D Y v a a d s d d d a a d a d ^ [ I d d M x d a d d d d d a a D M M M v v d v v v a 7 e a f c Y m m m c w w 1 ",
"@ > 1 1 1 3 3 3 > e k a w 9 3 2 7 a a 7 = 7 a a d D D d d d d a d d d a a d M d a d d d a a a a 7 s e 3 a e 3 v N f e y 3 : : $ "
};
