/* XPM */
static char *_108fdd86e3e40b68e1fbbf30a0cb8c0d4aqHTJGPCWcv9rf[] = {
/* columns rows colors chars-per-pixel */
"42 42 189 2 ",
"   c None",
".  c #1D1718",
"X  c #0F090C",
"o  c #201A15",
"O  c #3B250E",
"+  c #3A242E",
"@  c #3B3B39",
"#  c #520D10",
"$  c #710E11",
"%  c #690F12",
"&  c #432711",
"*  c #413012",
"=  c #583816",
"-  c #462C37",
";  c #443139",
":  c #7F3C3F",
">  c #4E4A18",
",  c #744A1C",
"<  c #7A4B27",
"1  c #60403E",
"2  c #77583E",
"3  c #785739",
"4  c #6F4630",
"5  c #5A3645",
"6  c #593C49",
"7  c #4E3741",
"8  c #633A4C",
"9  c #683D50",
"0  c #3B4347",
"q  c #4B4E50",
"w  c #534D51",
"e  c #745C46",
"r  c #6D4556",
"t  c #75485B",
"y  c #6D5F52",
"u  c #7A4E43",
"i  c #766452",
"p  c #7C4C61",
"a  c #775463",
"s  c #726C64",
"d  c #6C7174",
"f  c #757B7E",
"g  c #727575",
"h  c #6B6D6C",
"j  c #8B1216",
"k  c #A41419",
"l  c #AB151A",
"z  c #B6151A",
"x  c #92231A",
"c  c #AC231D",
"v  c #84292D",
"b  c #CA161C",
"n  c #D2191F",
"m  c #DD1B21",
"M  c #E41C22",
"N  c #ED1D24",
"B  c #F01D25",
"V  c #885528",
"C  c #955B2D",
"Z  c #9D5D2B",
"A  c #865935",
"S  c #915E34",
"D  c #A15E2B",
"F  c #95612A",
"G  c #9D632C",
"H  c #A3652A",
"J  c #AB6A2A",
"K  c #A3682B",
"L  c #B36E2C",
"P  c #BC752D",
"I  c #B8742B",
"U  c #B56A31",
"Y  c #BD7132",
"T  c #C47B2E",
"R  c #C0772E",
"E  c #C77E30",
"W  c #C87F30",
"Q  c #895A4C",
"!  c #865757",
"~  c #8E546D",
"^  c #835869",
"/  c #90566F",
"(  c #935671",
")  c #945A74",
"_  c #995A76",
"`  c #9E5D79",
"'  c #A15F7C",
"]  c #976769",
"[  c #896874",
"{  c #966679",
"}  c #A3627E",
"|  c #A26A78",
" . c #A5727D",
".. c #7D807D",
"X. c #C98030",
"o. c #C78030",
"O. c #CA812F",
"+. c #82837F",
"@. c #737F85",
"#. c #987182",
"$. c #AC6684",
"%. c #AB6885",
"&. c #A76984",
"*. c #B46C8B",
"=. c #B86E8E",
"-. c #AA738B",
";. c #AB7287",
":. c #B5718E",
">. c #BC6F91",
",. c #AF7C92",
"<. c #BD7192",
"1. c #B67B93",
"2. c #C37396",
"3. c #C47C9B",
"4. c #CA7A9D",
"5. c #C67598",
"6. c #CF7BA0",
"7. c #D47EA3",
"8. c #7D8385",
"9. c #868687",
"0. c #90918D",
"q. c #828C90",
"w. c #8B9294",
"e. c #8B979C",
"r. c #91999C",
"t. c #B68094",
"y. c #BD849B",
"u. c #AC8093",
"i. c #9BA1A5",
"p. c #9AA4A9",
"a. c #9CACB4",
"s. c #A2A9AD",
"d. c #AAB7BE",
"f. c #B2BABE",
"g. c #C2849D",
"h. c #CB83A2",
"j. c #C98BA6",
"k. c #D385A7",
"l. c #DB84AA",
"z. c #D48CAB",
"x. c #DC8BAE",
"c. c #D880A6",
"v. c #CB94AC",
"b. c #D296AF",
"n. c #DE8DB0",
"m. c #DD93B3",
"M. c #D798B3",
"N. c #E186AE",
"B. c #E48BB2",
"V. c #E98CB5",
"C. c #E487B0",
"Z. c #EB94BA",
"A. c #E69BBC",
"S. c #ED9ABE",
"D. c #E594B7",
"F. c #DBA1BA",
"G. c #E4A2BF",
"H. c #B4BCC0",
"J. c #EE9EC0",
"K. c #F09EC2",
"L. c #ECA3C3",
"P. c #E8AAC5",
"I. c #F2A4C5",
"U. c #F4A6C8",
"Y. c #F5ADCC",
"T. c #F8ADCD",
"R. c #F5B1CE",
"E. c #F8B0CF",
"W. c #F6B5D1",
"Q. c #F9B5D2",
"!. c #F9B9D4",
"~. c #F7B8D3",
"^. c #B9C6CD",
"/. c #B6C3C9",
"(. c #BFD1DA",
"). c #BACAD3",
"_. c #C5CED3",
"`. c #CCD7DD",
"'. c #CED5D9",
"]. c #D2DADE",
"[. c #CBDAE2",
"{. c #C7D7E0",
"}. c #D2DEE3",
"|. c #D6E1E7",
" X c #D8E2E7",
".X c #D7E3E9",
"XX c #DAE4E9",
"oX c #F7FAFB",
"OX c #E6ECEE",
/* pixels */
"                                                                                    ",
"                                                                                    ",
"                                                                                    ",
"                                        > *                                         ",
"                                    $ k x c l #                                     ",
"                                  % m B N N N b #                                   ",
"                                  k N N N N N N j                                   ",
"                                  k M N N N N N j                                   ",
"                                  % n m m M M m #                                   ",
"                              d r.9.v z b n c v i.i.f q                             ",
"                          8.H.}.|.`.s.[ ! ^ 9.H.XXXX|._.i.h                         ",
"                      h f.|. X X X|. X}.}.}.XXXXXX|. XOXoXOXs.w                     ",
"                    w.`.XX X X X X X X X X X X X X X XXXOXoXoX'.d                   ",
"                  p. X X X X X X X X X X X X X X X X X XXXOXoXoX].f                 ",
"                s.XX X X X X X X X X X X X X X X X X.XXXXXXXXXXXXX].f               ",
"              @.`.XXXXXXXX.X X X X X X X XXX X X X X|.H.w.a.`.XX XXXp.0             ",
"            . w _. X).r.+.r.]. X X X X X`.(.}..X.XXX^.e G V s ^..X.Xg @             ",
"            O +.).9.e Z J V 9.}. X X|.a.s e 8.[.XXXXp.F O.o.K y H.XXw., .           ",
"            < y e K T X.W T 3 d.XX|.r.3 L R 3 w..XXXp.F X.E X.L 3 9.g H =           ",
"          = P L T O.W E W W J s ^.0.A T O.T P 2 a.[.8.K X.E E O.R H H E V           ",
"          , O.W o.O.o.o.o.E E G 2 F T X.o.E X.L 2 s A T X.o.E o.W W W W H           ",
"          V W W o.T E E E o.W E T O.E o.o.W E X.P I T E o.X.X.T E E E E J &         ",
"          V E E X.o.E E E X.E E X.o.o.E E o.E E o.X.E E E X.E X.E E E Y U &         ",
"        a < U E W E o.o.E E E E X.o.o.o.X.E X.T o.o.E E E E o.X.W R Y P Z 8 ;       ",
"        ,.^ V D C S G R E E E X.E E E E X.o.E E o.E X.X.E E E L C C D Z 4 -.6       ",
"        a &.1. .g.j.{ A J L G S K T E E I K P E E P G C H L D u ,.g. . .,._         ",
"          ~ M.!.Q.L.1.g.] ] y.g. .A Z A ] | Q C C Q ;.g.| ! ] 3.z.E.R.R.-.8         ",
"          9 y.!.Y.I.*.J.Y.Y.T.4.J.b.t.b.L.k.J.y.1.G.h.A.W.Y.Q.1.z.Y.R.P.^ +         ",
"          - { Q.Y.U.&.x.E.E.Y.:.z.W.E.E.J.*.I.E.Q.Y.:.D.Y.W.Y.&.x.Y.Q.b.5           ",
"            t R.E.I.&.3.W.Q.U.%.6.Y.W.Y.A.&.J.Y.W.U.{ D.Y.W.U.) x.Y.!.,.+           ",
"            ; P.Q.U.$.:.E.W.U.*.<.Y.Q.Y.A._ A.Y.W.J.) A.Y.!.L.~ B.Y.Q./ X           ",
"            . v.Q.I.*.&.Y.Q.U.*.%.U.~.Y.m./ Z.Y.!.A./ S.Y.!.M.~ V.Y.W.w             ",
"            X ,.!.I.2.` U.!.U.=.' K.Q.E.m.~ V.R.~.m.~ S.R.!.z.) V.Y.P.;             ",
"              #.!.I.4._ K.W.I.<.' S.Q.R.n.~ B.Y.!.z.) S.R.Q.h.` V.U.F.+             ",
"              [ !.I.6._ S.W.I.2.' Z.W.R.n.~ C.U.!.k._ S.R.Q.3.$.V.U.v.              ",
"              a Y.S.c.} Z.E.I.4.} Z.Y.R.x.) C.U.~.k.} S.Y.R.3.*.V.U.t.              ",
"              w G.K.N.$.V.R.I.6.$.V.U.R.N.' C.I.R.k.$.S.T.Y.5.2.C.K.#.              ",
"                [ 7.7.2.Z.Y.K.7.>.V.I.Y.N.$.C.K.E.z.<.Z.T.T.7.7.7.&.7               ",
"                    t ~ *.v.x.4.5.C.G.U.B.<.C.Z.L.l.2.k.b.g.` p 5                   ",
"                              5 8 r a ^ p r t p a r 5                               ",
"                                                                                    ",
"                                                                                    "
};