/* XPM */
static char *result[] = {
/* columns rows colors chars-per-pixel */
"42 42 105 2 ",
"   c #3D848D",
".  c #3E8993",
"X  c #418D97",
"o  c #428F99",
"O  c #44929C",
"+  c #4596A1",
"@  c #479BA6",
"#  c #489BA5",
"$  c #499EA9",
"%  c #48A0AC",
"&  c #4CA6B2",
"*  c #4DA9B5",
"=  c #4EADB9",
"-  c #51A9B5",
";  c #51AEBA",
":  c #5CAFBA",
">  c #4FB1BE",
",  c #52B2BE",
"<  c #5AB1BC",
"1  c #65AEB7",
"2  c #6BADB6",
"3  c #61AFBA",
"4  c #7CAEB5",
"5  c #63B2BD",
"6  c #6AB2BC",
"7  c #7CB1B7",
"8  c #72B4BC",
"9  c #7CB4BB",
"0  c #52B5C2",
"q  c #5AB6C2",
"w  c #56B8C4",
"e  c #5DB9C5",
"r  c #65B6C1",
"t  c #63BAC6",
"y  c #69BCC6",
"u  c #62BCC8",
"i  c #6CBFCA",
"p  c #75BBC4",
"a  c #79B9C1",
"s  c #74BFC9",
"d  c #76C2CC",
"f  c #7CC5CE",
"g  c #89AFB4",
"h  c #87B0B6",
"j  c #8CB6BB",
"k  c #98B4B8",
"l  c #91B8BE",
"z  c #99B9BD",
"x  c #83BCC4",
"c  c #95BBC0",
"v  c #AEBFC2",
"b  c #B2BFC1",
"n  c #85C0C7",
"m  c #8EC1C7",
"M  c #84C6CF",
"N  c #8BC5CC",
"B  c #99C3C9",
"V  c #80C7D0",
"C  c #83C8D1",
"Z  c #8AC9D2",
"A  c #95CED5",
"S  c #98CED5",
"D  c #9ED0D6",
"F  c #9ED3DA",
"G  c #A9C3C6",
"H  c #B2C5C8",
"J  c #A0CBD1",
"K  c #A0D0D6",
"L  c #A4D4DA",
"P  c #ACD7DC",
"I  c #ADD9DE",
"U  c #B8D8DD",
"Y  c #ADDAE0",
"T  c #B6DCE1",
"R  c #BBDDE2",
"E  c #C4CACB",
"W  c #C9CECE",
"Q  c #C5D4D5",
"!  c #CCD5D6",
"~  c #C5DBDD",
"^  c #D0D5D5",
"/  c #D1D8D9",
"(  c #C5E2E6",
")  c #CCE3E6",
"_  c #CAE5E9",
"`  c #CDE8EC",
"'  c #DCE1E2",
"]  c #D1E7EA",
"[  c #D2E8EB",
"{  c #DCECEE",
"}  c #DEEFF1",
"|  c #E6E5E5",
" . c #E8E7E7",
".. c #E2E9EA",
"X. c #EAEAEA",
"o. c #F0EFEF",
"O. c #E5F2F3",
"+. c #EDF3F4",
"@. c #EFF7F8",
"#. c #F4F4F4",
"$. c #F8F6F6",
"%. c #F3F7F8",
"&. c #F4F9F9",
"*. c #FFFFFF",
"=. c None",
/* pixels */
"=.=.=.=.=.=.=.=.=.=.=.=.=.=.=.=.=.=.=.=.; =.=.=.=.=.=.=.=.=.=.=.=.=.=.=.=.=.=.=.=.=.",
"=.=.=.=.=.=.=.=.=.=.=.=.=.=.=.=.=., 0 0 0 0 0 , =.=.=.=.=.=.=.=.=.=.=.=.=.=.=.=.=.=.",
"=.=.=.=.=.=.=.=.=.=.=.=.=.=.=.=.; : 4 l j 9 < 0 0 =.=.=.=.=.=.=.=.=.=.=.=.=.=.=.=.=.",
"=.=.=.=.=.=.=.=.=.=.=.=.=.=.=.0 2 b | #.#.X.Q a 0 , =.=.=.=.=.=.=.=.=.=.=.=.=.=.=.=.",
"=.=.=.=.=.=.=.=.=.=.=.=.=.=., 1 E $.*.*.*.*.*...x 0 - =.=.=.=.=.=.=.=.=.=.=.=.=.=.=.",
"=.=.=.=.=.=.=.=.=.=.=.=.=.=.< v $.*.*.*.*.*.*.*.X.s , =.=.=.=.=.=.=.=.=.=.=.=.=.=.=.",
"=.=.=.=.=.=.=.=.=.=.=.=.=.0 4  .*.*.*.*.*.*.*.*.*.) e & =.=.=.=.=.=.=.=.=.=.=.=.=.=.",
"=.=.=.=.=.=.=.=.=.=.=.=.=., H *.*.*.*.*.*.*.*.*.*.*.S , =.=.=.=.=.=.=.=.=.=.=.=.=.=.",
"=.=.=.=.=.=.=.=.=.=.=.=.0 6 ' *.*.*.*.*.*.*.*.*.*.*.[ e =.=.=.=.=.=.=.=.=.=.=.=.=.=.",
"=.=.=.=.=.=.=.=.=.=.=.=.0 j #.*.*.*.*.*.*.*.*.*.*.*.&.f & =.=.=.=.=.=.=.=.=.=.=.=.=.",
"=.=.=.=.=.=.=.=.=.=.=.=., G *.*.*.*.*.*.*.*.*.*.*.*.*.P 0 0 0 =.=.=.=.=.=.=.=.=.=.=.",
"=.=.=.=.=.=.=., 0 0 0 0 < Q *.*.*.*.*.*.*.*.*.*.*.*.*._ 0 0 0 0 0 =.=.=.=.=.=.=.=.=.",
"=.=.=.=.=., , 1 4 j j 8 2 ' *.*.*.*.*.*.*.*.*.*.*.*.*.O.c z l 6 0 , =.=.=.=.=.=.=.=.",
"=.=.=.=.0 < g W X.#.#.| / #.*.*.*.*.*.*.*.*.*.*.*.*.*.*.$.$.#.' m 0 - =.=.=.=.=.=.=.",
"=.=.=.=.< k | *.*.*.*.*.*.*.*.*.*.*.*.*.*.*.*.*.*.*.*.*.*.*.*.*.#.N , =.=.=.=.=.=.=.",
"=.=.=.0 h | *.*.*.*.*.*.*.*.*.*.*.*.*.*.*.*.*.*.*.*.*.*.*.*.*.*.*.{ t & =.=.=.=.=.=.",
"=.=.0 1 / *.*.*.*.*.*.*.*.*.*.*.*.*.*.*.*.*.*.*.*.*.*.*.*.*.*.*.*.*.S = =.=.=.=.=.=.",
"=.=., z $.*.*.*.*.*.*.*.*.*.*.*.*.*.*.*.*.*.*.*.*.*.*.*.*.*.*.*.*.*.` < =.=.=.=.=.=.",
"=.0 3 / *.*.*.*.*.*.*.*.*.*.*.*.*.*.*.*.*.*.*.*.*.*.*.*.*.*.*.*.*.*.%.i # =.=.=.=.=.",
"=.0 7 o.*.*.*.*.*.*.*.*.*.*.*.*.*.*.*.*.*.*.*.*.*.*.*.*.*.*.*.*.*.*.$.Z 0 , =.=.=.=.",
"=., G *.*.*.*.*.*.*.*.*.*.*.*.*.*.*.*.*.*.*.*.*.*.*.*.*.*.*.*.*.*.*.*.P 5 0 , =.=.=.",
"=.< Q *.*.*.*.*.*.*.*.*.*.*.*.*.*.*.*.*.*.*.*.*.*.*.*.*.*.*.*.*.*.*.*.#./ B q & =.=.",
"> 6 ' *.*.*.*.*.*.*.*.*.*.*.*.*.*.*.*.*.*.*.*.*.*.*.*.*.*.*.*.*.*.*.*.*.*.$.S , =.=.",
"0 8 X.*.*.*.*.*.*.*.*.*.*.*.*.*.*.*.*.*.*.*.*.*.*.*.*.*.*.*.*.*.*.*.*.*.*.*.{ t $ =.",
"> 9 #.*.*.*.*.*.*.*.*.*.*.*.*.*.*.*.*.*.*.*.*.*.*.*.*.*.*.*.*.*.*.*.*.*.*.*.*.Z * =.",
"0 x $.*.*.*.*.*.*.*.*.*.*.*.*.*.*.*.*.*.*.*.*.*.*.*.*.*.*.*.*.*.*.*.*.*.*.*.*.T = =.",
"0 x &.*.*.*.*.*.*.*.*.*.*.*.*.*.*.*.*.*.*.*.*.*.*.*.*.*.*.*.*.*.*.*.*.*.*.*.*.[ q =.",
"0 a $.*.*.*.*.*.*.*.*.*.*.*.*.*.*.*.*.*.*.*.*.*.*.*.*.*.*.*.*.*.*.*.*.*.*.*.*.} e =.",
"0 p X.*.*.*.*.*.*.*.*.*.*.*.*.*.*.*.*.*.*.*.*.*.*.*.*.*.*.*.*.*.*.*.*.*.*.*.*.O.r =.",
"=.r ..*.*.*.*.*.*.*.*.*.*.*.*.*.*.*.*.*.*.*.*.*.*.*.*.*.*.*.*.*.*.*.*.*.*.*.*.} < =.",
"=.q ~ *.*.*.*.*.*.*.*.*.*.*.*.*.*.*.*.*.*.*.*.*.*.*.*.*.*.*.*.*.*.*.*.*.*.*.*.` ; =.",
"=., S *.*.*.*.*.*.*.*.*.*.*.*.*.*.*.*.*.*.*.*.*.*.*.*.*.*.*.*.*.*.*.*.*.*.*.*.Y % =.",
"=.; s +.*.*.*.*.*.*.*.*.*.*.*.*.*.*.*.*.*.*.*.*.*.*.*.*.*.*.*.*.*.*.*.*.*.*.%.d . =.",
"=.=.q U *.*.*.*.*.*.*.*.*.*.*.*.*.*.*.*.*.*.*.*.*.*.*.*.*.*.*.*.@.%.*.*.*.*.L ; =.=.",
"=.=.; y { *.*.*.*.*.*.*.*.*.*.*.*.*.*.*.*.*.*.*.*.*.*.*.*.*.*.&.A Z { &.+.F w . =.=.",
"=.=.=.0 M %.*.*.*.*.*.*.*.*.*.O.%.*.*.*.*.*.*.*.@.@.*.*.*.*.*.I w w u f i 0 $ =.=.=.",
"=.=.=.& 0 K $.*.*.*.*.*.*.*.O.f K $.*.*.*.*.*.*.A f ) &.&.{ F e $ O = 0 = O =.=.=.=.",
"=.=.=.=.* e Z [ *.*.*.*.*.{ V 0 0 L &.*.*.*.&.Y 0 0 e d d e 0 $ =.=.=.=.=.=.=.=.=.=.",
"=.=.=.=.=.* 0 e Z I R R A u =   * w M T ( I V e +   & = = = . =.=.=.=.=.=.=.=.=.=.=.",
"=.=.=.=.=.=.O ; 0 0 0 0 0 @ =.=.=.& 0 w w 0 > o =.=.=.=.=.=.=.=.=.=.=.=.=.=.=.=.=.=.",
"=.=.=.=.=.=.=.=.  X X . =.=.=.=.=.=.=.@ $ O =.=.=.=.=.=.=.=.=.=.=.=.=.=.=.=.=.=.=.=.",
"=.=.=.=.=.=.=.=.=.=.=.=.=.=.=.=.=.=.=.=.=.=.=.=.=.=.=.=.=.=.=.=.=.=.=.=.=.=.=.=.=.=."
};
