/* XPM */
static char *result[] = {
/* columns rows colors chars-per-pixel */
"42 42 207 2 ",
"   c #670073",
".  c #6C3070",
"X  c #704E72",
"o  c #F51C08",
"O  c #FF3200",
"+  c #CE1525",
"@  c #B46D39",
"#  c #FF4E00",
"$  c #FF5500",
"%  c #FF7500",
"&  c #E87012",
"*  c #C7572B",
"=  c #FF682B",
"-  c #FF6737",
";  c #9E0C4A",
":  c #A04648",
">  c #FF6757",
",  c #C85069",
"<  c #FF6968",
"1  c #FF6173",
"2  c #B18B3D",
"3  c #DD8D1A",
"4  c #FC8D03",
"5  c #F89706",
"6  c #FFAC00",
"7  c #E5B614",
"8  c #C89F2A",
"9  c #CEA32A",
"0  c #FFC600",
"q  c #A88242",
"w  c #34009B",
"e  c #2F279E",
"r  c #1309B3",
"t  c #261BA5",
"y  c #4B3D89",
"u  c #503FAF",
"i  c #615094",
"p  c #665AAB",
"a  c #0104C0",
"s  c #000BC1",
"d  c #0015C1",
"f  c #1013DF",
"g  c #261FDA",
"h  c #1431CC",
"j  c #2937DF",
"k  c #0606FF",
"l  c #1A1DFF",
"z  c #1A23FD",
"x  c #222AFF",
"c  c #2826FC",
"v  c #343BFF",
"b  c #373BFB",
"n  c #0F5DCA",
"m  c #2840D2",
"M  c #1A7AD9",
"N  c #196DCE",
"B  c #297AD2",
"V  c #3C42FF",
"C  c #3E4FFF",
"Z  c #204EED",
"A  c #3D6AED",
"S  c #566EDE",
"D  c #4C69DB",
"F  c #6461C8",
"G  c #4145FF",
"H  c #4356FE",
"J  c #5357FF",
"K  c #5868E0",
"L  c #5965FF",
"P  c #5A6AFE",
"I  c #6668FF",
"U  c #697BFF",
"Y  c #757BFF",
"T  c #6F71E2",
"R  c #95399E",
"E  c #AA7D92",
"W  c #BA77A3",
"Q  c #FF6B89",
"!  c #FF6998",
"~  c #FF7191",
"^  c #FF6AA5",
"/  c #FF68BC",
"(  c #FF73BA",
")  c #9437C6",
"_  c #B979D1",
"`  c #B942F1",
"'  c #8D70E8",
"]  c #B26FE8",
"[  c #C64AC4",
"{  c #FF5ED9",
"}  c #FF67CF",
"|  c #FF7BCB",
" . c #FF6EDD",
".. c #FF74D5",
"X. c #FF72DB",
"o. c #FA76D5",
"O. c #E673D7",
"+. c #CB53F9",
"@. c #E85BF6",
"#. c #FF5CF5",
"$. c #FF55FF",
"%. c #FF58FB",
"&. c #F45AF6",
"*. c #DB68EA",
"=. c #CF6DE9",
"-. c #E863EA",
";. c #FF64E3",
":. c #FF6BE1",
">. c #FF64EC",
",. c #FF69EA",
"<. c #FF60F0",
"1. c #1B8DD4",
"2. c #148DD3",
"3. c #1B92D5",
"4. c #248ED6",
"5. c #2D98D8",
"6. c #2994D7",
"7. c #3998D9",
"8. c #3786D2",
"9. c #3AA5DB",
"0. c #2F8BE0",
"q. c #468BD6",
"w. c #479CDC",
"e. c #559AD9",
"r. c #7A92DB",
"t. c #47A4DC",
"y. c #53A5DF",
"u. c #56A7DD",
"i. c #4DB1DF",
"p. c #68A5DB",
"a. c #76A0D9",
"s. c #7086F5",
"d. c #55ADE2",
"f. c #5CAAE2",
"g. c #54B4E2",
"h. c #5CB3E3",
"j. c #55B9E2",
"k. c #65A9E3",
"l. c #7CADE7",
"z. c #66B6E5",
"x. c #77B8E8",
"c. c #6CCAE8",
"v. c #7CC3EA",
"b. c #75C8E9",
"n. c #72D2EB",
"m. c #7EDDEE",
"M. c #6DD1E9",
"N. c #8B93BB",
"B. c #A688B3",
"V. c #9192D7",
"C. c #B182D4",
"Z. c #87ACDF",
"A. c #828AFF",
"S. c #829DFF",
"D. c #8E96ED",
"F. c #8CACE6",
"G. c #92A9E1",
"H. c #8AB3EA",
"J. c #95B4E8",
"K. c #96AAFF",
"L. c #9BBAF8",
"P. c #83BBF4",
"I. c #A3BBEA",
"U. c #AABCF1",
"Y. c #A1B0FF",
"T. c #C3BFF6",
"R. c #86C9EB",
"E. c #93CDEE",
"W. c #84D2EC",
"Q. c #86DAEE",
"!. c #9AC9F3",
"~. c #8CDEF0",
"^. c #99D7F1",
"/. c #90D2EC",
"(. c #A6C5EE",
"). c #A8CCF5",
"_. c #B5CEF5",
"`. c #BCCCF7",
"'. c #B7CAFB",
"]. c #ABD3F4",
"[. c #A3DDF4",
"{. c #ACDDF6",
"}. c #A3D3F1",
"|. c #B4DBF7",
" X c #BDD6F9",
".X c #BBD9F9",
"XX c #B6D4F7",
"oX c #94E5F3",
"OX c #9CE4F4",
"+X c #93E9F3",
"@X c #A3E2F5",
"#X c #AAE0F6",
"$X c #C8CAF9",
"%X c #C7C8F8",
"&X c #D5CEFB",
"*X c #DBCDFC",
"=X c #C4D5F9",
"-X c #CBD2FA",
";X c #C2DDFD",
":X c #CEDFFC",
">X c #D2D1FB",
",X c #D1DCFF",
"<X c #E4CAFE",
"1X c #EBC8FF",
"2X c #C5E1FE",
"3X c #D8E8FF",
"4X c None",
/* pixels */
"4X4X4X4X4X4X4X4X4X4X4X4X4X4X4X4X4X4X4X4Xu 9 7 4X4X4X4X4X4X4X4X4X4X4X4X4X4X4X4X4X4X4X",
"4X4X4X4X4X4X4X4X4X4X4X4X4X4X4X4X4X4X4X4Xg X y q 4X4X4X4X4X4X4X4X4X4X4X4X4X4X4X4X4X4X",
"4X4X4X4X4X4X4X4X4X4X4X4X4X4X4X4X4X4X4X4Xv i r r . : * & 4 6 4X4X4X4X4X4X4X4X4X4X4X4X",
"4X4X4X4X4X4X4X4X4X4X4X4X4X4X4X4X4X4X4X4XU i r r w   ; + o O $ % 6 4X4X4X4X4X4X4X4X4X",
"4X4X4X4X4X4X4X4X4X4X4X4X4X4X4X4X4X4X4XV K.p e t X @ 3 5 4 % # O $ 5 0 4X4X4X4X4X4X4X",
"4X4X4X4X4X4X4X4X4X4X4X4X4X4X4X4X4X4X4XL '.F q 8 4X4X4X4X4X4X4X4X6 6 0 0 4X4X4X4X4X4X",
"4X4X4X4X4X4X4X4X4X4X4X4X4X4X4X4X4X4X4XA.;XL 4X4X4X4X4X4X4X4X4X4X4X4X4X4X4X4X4X4X4X4X",
"4X4X4X4X4X4X4X4X4X4X4X4X4X4X4X4X4X4X4XY.2Xs.4X4X4X4X4X4X4X4X4X4X4X4X4X4X4X4X4X4X4X4X",
"4X4X4X4X4X4X4X4X4X4X4X4X4X4X4X4X4X4Xb '.2Xs.4X4X4X4X4X4X4X4X4X4X4X4X4X4X4X4X4X4X4X4X",
"4X4X4X4X4X4X4X4X4X4X4X4X4X4X4X4X4X4XI 3X2XL.x 4X4X4X4X4X4X4X4X4X4X4X4X4X4X4X4X4X4X4X",
"4X4X4X4X4X4X4X4X4X4X4X4X4X4X4X4X4X4XS.,X X).V 4X4X4X4X4X4X4X4X4X4X4X4X4X4X4X4X4X4X4X",
"4X4X4X4X4X4X4X4X4X4X4X4X4X4X4X4X4Xf D T K K j 4X4X4X4X4X4X4X4X4X4X4X4X4X4X4X4X4X4X4X",
"4X4X4X4X4X4X4X4X4X4X4X4X4X4X4X4X4Xg H.=X$X`.s.4X4X4X4X4X4X4X4X4X4X4X4X4X4X4X4X4X4X4X",
"4X4X4X4X4X4X4X4X4X4Xk 4X4X4X4X4X4X4XD.$X$X XS 4X4X4X4X4X4X4Xk 4X4X4X4X4X4X4X4X4X4X4X",
"4X4X4X4X4X4X4X4X4X4Xv b 4X4X4X4X4X4Xm D K D h 4X4X4X4X4X4Xx v 4X4X4X4X4X4X4X4X4X4X4X",
"4X4X4X4X4X4X4X4X4X4XJ A.4X4X4X4X4X4X1.b.^.x.4X4X4X4X4X4X4XP P 4X4X4X4X4X4X4X4X4X4X4X",
"4Xk 4X4X4X4X4X4X4X4XJ '.C 4X4X4X4X4X6.^.|./.3.4X4X4X4X4Xz K.U 4X4X4X4X4X4X4X4X4Xz 4X",
"x Y b 4X4X4X4X4X4X4Xb A.V 4X4X4X4X4X6.^. X).5.4X4X4X4X4Xc Y H 4X4X4X4X4X4X4Xl P S.x ",
"G ,X'.L 4X4X4X4X4X4XR ` ` , 4X4X4X4X5.].-X_.7.4X4X4X4X4X[ +.) 4X4X4X4X4X4XG K. X!.V ",
"J 3X3X.Xs.z 4X4X4X4X- { >.< 4X4X4X4X5._.&X=Xw.4X4X4X4X- { #.1 4X4X4X4X4XZ L.;X X).H ",
"I 3X].x.d.0.4X4X4X4X4X} ,.^ 4X4X4X4X7.XX<X&Xd.4X4X4X4X<  .;.> 4X4X4X4X3.j.j.d.z.x.H ",
"D z.j.c.Q.~.t.4X4X4X4X! :.( - 4X4X4X7.XX<X&Xf.4X4X4X4X~  .} - 4X4X4X4Xh.@XOX~.M.g.M ",
"2.n.+XoXOX#XR.1.4X4X4XQ X.| < 4X4X4X9._.*X>Xk.4X4X4X= ( | } = 4X4X4X5.^.#XOXOX+Xn.3.",
"4Xj.oXOX[.{.{.d.4X4X4X< | | ~ 4X4X4Xw.XX-X-Xx.4X4X4X> | | ^ 4X4X4X4Xz..X{.{.#X~.9.4X",
"4X2.c.{.{.|..X!.4.4X4X> | | / - 4X4X9.}.=X;Xx.4X4X4X~ o.o.! 4X4X4X7.).=X.X|.{.j.4X4X",
"4X4X5.!..X X=X=Xk.q.V.B._ O. .< 4X4X7.Z.G.G.p.4X4X= / :.C.B.V.r.q.l.-X-X X.Xx.2.4X4X",
"4X4X4Xt.XX-X$X>X(.y.W.~.n.V.-.! 4X4X7.Z.^.E.p.4X4X> ;._ R.~.~.W.w.`.*X$X-X!.4.4X4X4X",
"4X4X4X4Xk.-X>X<X*Xk.n.+X+X/.V._ E 4Xe.J.|.].a.q.4XW C.F.oX+X+Xj.F.*X<X*X`.w.4X4X4X4X",
"4X4X4X4X4XH.<X<X<XU.g.oXOX@X}.}.(.(.I.(..X X(.I.(.(.}.[.@XOX~.u.%X<X1X&Xk.4X4X4X4X4X",
"4X4X4X4X4X4.U.1X<X&Xk.W.@X[.|..X;X=X-X-X-X=X-X=X=X.X|.|.#X@Xc.a.*X<X<XF.4X4X4X4X4X4X",
"4X4X4X4X4X4X7.T.<X&X(.h.[.|..X.X=X-X>X&X*X&X&X>X=X=X.X|.|.[.u.).>X<XJ.1.4X4X4X4X4X4X",
"4X4X4X4X4X4X4Xe.%X&X=Xf.E.|..X=X-X>X*X<X<X<X<X*X&X=X=X.X|.x.z.=X>XU.0.4X4X4X4X4X4X4X",
"4X4X4X4X4X4X4X4Xk.=X=XR.z.|. X=X-X&X*X<X<X<X<X*X>X-X=X.X].d.!.;X).7.4X4X4X4X4X4X4X4X",
"4X4X4X4X4X4X4X4X4Xl..X{.d.!..X=X-X>X&XH.q.q.J.&X-X-X X.Xx.z.|.].y.4X4X4X4X4X4X4X4X4X",
"4X4X4X4X4X4X4X4X4X1.v.{.b.h.|..X=X=XXXN s d 7.=X-X.X.X].t.W.[.h.4X4X4X4X4X4X4X4X4X4X",
"4X4X4X4X4X4X4X4X4X4X6.W.oXi.E.|.|..XXXB a d u.=XXX|.{.x.i.oXc.4X4X4X4X4X4X4X4X4X4X4X",
"4X4X4X4X4X4X4X4X4X4X4X9.Q.n.h.[.{.{.{.7.r h b.|.{.{.E.w.Q.M.3.4X4X4X4X4X4X4X4X4X4X4X",
"4X4X4X4X4X4X4X4X4X4X4X4X9.n.9.b.OX@X#Xt.d n ~.@XOXOXu.7.u.q.4X4X4X4X4X4X4X4X4X4X4X4X",
"4X4X4X4X4X4X4X4X4X4X4X4X] ' T r.F.Z.J.u.n 8.G.G.G.V.] +.+.&.$.4X4X4X4X4X4X4X4X4X4X4X",
"4X4X4X4X4X4X4X4X4X4X4X$.$.$.$.&.@.@.-.*.=.=.-.-.&.&.#.$.%.%.$.4X4X4X4X4X4X4X4X4X4X4X",
"4X4X4X4X4X4X4X4X4X4X4X$.$.$.$.$.$.#.>.:. ..... . .,.>.#.$.$.$.4X4X4X4X4X4X4X4X4X4X4X",
"4X4X4X4X4X4X4X4X4X4X4X4X4X$.$.$.$.%.#.>.>.:.:.:.>.<.%.%.4X4X4X4X4X4X4X4X4X4X4X4X4X4X"
};
