/* XPM */
static char *result[] = {
/* columns rows colors chars-per-pixel */
"42 42 151 2 ",
"   c #2D2D2D",
".  c #35312D",
"X  c #333333",
"o  c #3A3534",
"O  c #39373A",
"+  c #3C3A3E",
"@  c #3D3832",
"#  c #423629",
"$  c #41382F",
"%  c #433B33",
"&  c #41353A",
"*  c #4B373F",
"=  c #483D32",
"-  c #4C4135",
";  c #574737",
":  c #564738",
">  c #5D4B39",
",  c #6A533B",
"<  c #765A3D",
"1  c #3E3C41",
"2  c #423E45",
"3  c #4A3942",
"4  c #453F4C",
"5  c #5F3C4A",
"6  c #653D4D",
"7  c #723E54",
"8  c #454049",
"9  c #48434D",
"0  c #494250",
"q  c #504957",
"w  c #544E5D",
"e  c #775C40",
"r  c #7B5E41",
"t  c #7F6142",
"y  c #575260",
"u  c #5C5264",
"i  c #5F556A",
"p  c #63586D",
"a  c #6C6279",
"s  c #83435D",
"d  c #846444",
"f  c #8E6A45",
"g  c #916C46",
"h  c #986D46",
"j  c #9F6E49",
"k  c #926D48",
"l  c #9D7147",
"z  c #977149",
"x  c #9D734A",
"c  c #A76F4F",
"v  c #A07347",
"b  c #A2754B",
"n  c #A57A4D",
"m  c #A87C4F",
"M  c #A67943",
"N  c #B6665D",
"B  c #B36F59",
"V  c #B9695E",
"C  c #A77C51",
"Z  c #AA7C50",
"A  c #A77E5E",
"S  c #B07155",
"D  c #B17856",
"F  c #B47459",
"G  c #8D4864",
"H  c #9C4B6B",
"J  c #99577E",
"K  c #B15278",
"L  c #9F7A6B",
"P  c #BE6C64",
"I  c #A17B6B",
"U  c #C7706C",
"Y  c #C8706D",
"T  c #CD6771",
"R  c #CB6F70",
"E  c #D66778",
"W  c #B4853D",
"Q  c #BC8B38",
"!  c #C8973B",
"~  c #F7C22F",
"^  c #F9C42D",
"/  c #B68440",
"(  c #F69A59",
")  c #FAA55B",
"_  c #E3B75B",
"`  c #C59E78",
"'  c #FC9175",
"]  c #CBA372",
"[  c #7A6C8A",
"{  c #8C5B80",
"}  c #837493",
"|  c #A56F9F",
" . c #B66B9E",
".. c #8D7CA0",
"X. c #A77FAC",
"o. c #C45983",
"O. c #CC5988",
"+. c #D75F8E",
"@. c #D8558A",
"#. c #FF5E9E",
"$. c #D9608F",
"%. c #D26498",
"&. c #E96787",
"*. c #E46987",
"=. c #EC6B91",
"-. c #E86598",
";. c #E56597",
":. c #FF609F",
">. c #F56D9B",
",. c #FB6A9F",
"<. c #F16896",
"1. c #FD7F90",
"2. c #FE779B",
"3. c #C476A9",
"4. c #DB72AE",
"5. c #D473AF",
"6. c #DF7EB3",
"7. c #E969A7",
"8. c #EE66A4",
"9. c #FE65A2",
"0. c #F76AA1",
"q. c #FF6CA5",
"w. c #FF6EA8",
"e. c #EF76AD",
"r. c #E374AE",
"t. c #F373AB",
"y. c #FF71A8",
"u. c #E47BB1",
"i. c #E87AB0",
"p. c #AC8C9D",
"a. c #9886AB",
"s. c #9A87B0",
"d. c #AC8EA4",
"f. c #A981AD",
"g. c #A18DB7",
"h. c #B584BC",
"j. c #AD92B7",
"k. c #B499BB",
"l. c #FD828C",
"z. c #C7A288",
"x. c #C7A591",
"c. c #C280B8",
"v. c #A98FC2",
"b. c #AB93C4",
"n. c #AD95C9",
"m. c #AF98CA",
"M. c #B795C6",
"N. c #B993C5",
"B. c #B29AC6",
"V. c #B29CCB",
"C. c None",
/* pixels */
"C.C.C.        X   C.C.C.C.C.C.C.C.C.C.C.C.C.C.C.C.C.C.C.C.C.C.C.C.  .     X   C.C.C.",
"C.C.  X X X X X X X   X   C.C.C.C.C.C.C.C.C.C.C.C.C.C.C.C.  X   X X X X X X X X C.C.",
"C.  X X X X X X X X X X 2 C.C.h.C.C.4.C.7.C.C.5.C.C.v.C.C.o X X X X X X X X X X   C.",
"  X X X X X X X X X q 8 y  .C.9.9.C.9.#.9.9.9.9.C.9.8.C.| w + 2 X X X X X X X X X   ",
"  X X X X X X X X X p J s @.q.9.y.q.y.w.y.y.w.w.q.y.:.9.O.7 { i X X X X X X X X X   ",
"  X X X X X X X X 9 [ f.%.9.q.0.-.$.O.o.o.o.O.$.;.>.q.q.9.%.X.a + X X X X X X X     ",
"C.X X X X X X X y s.a.y * H G 6 3 & o o O X o & 3 5 s K H 2 a v...8 X X X X X X   C.",
"C.  X X X X X 2 s.} 1   X X X X X X X X X X X X X X X X X X X u b.} O X X X X X   C.",
"C.C.    X X X u } O X X X X X X X X X X X X X X X X X X X X X X p g.8 X X X     C.C.",
"C.C.C.C.      4 + X X X X   X X X X X X X X X X X X X X X X X X O [ 0       C.C.C.C.",
"C.C.C.C.C.C.C.  X X X X X $ @ X X X X O X X X X X X   X X X X X X X C.C.C.C.C.C.C.C.",
"C.C.C.C.C.C.C.  X X X X X t t @ X X X X X X X X X X . X X X X X X   C.C.C.C.C.C.C.C.",
"C.C.C.C.C.C.C.X X X X X - x m d =     O X X X X X X = % X X X X X X C.C.C.C.C.C.C.C.",
"C.C.C.C.C.C.  X X X X - k C m m z e +   X X X X X X o > - X X X X X   C.C.C.C.C.C.C.",
"C.C.C.C.C.C.  X X % , x m C C m / m x e : % @ X X X X @ e , % X X X   C.C.C.C.C.C.C.",
"C.C.C.C.C.C.$ ; < z C C m x g m A m m m n x g d d < , r z C z e > % . C.C.C.C.C.C.C.",
"C.C.C.C.C.C.h b m m m m Z , # x C n C m m m m m m z @ < m m m m n h g C.C.C.C.C.C.C.",
"C.C.C.C.C.C.C.*.P m m m m b z m n C m n n b m m m m z b m m m m F E N C.C.C.C.C.C.C.",
"C.C.C.C.C.C.C.C.N n m m m m m m m m m n n n C A m m m m m m m m N C.C.C.C.C.C.C.C.C.",
"C.C.C.C.C.C.C.C.C.l m m m m m m m m m C n n A / m m m m m m m v C.C.C.C.C.C.C.C.C.C.",
"C.C.C.C.C.C.C.C.C.C.v m C C m m m m x x C C z x m m m m m n v C.C.C.C.C.C.C.C.C.C.C.",
"C.C.C.C.C.C.C.C.C.C.C.x n C m m m m n f z k f C m m m C n v C.C.C.C.C.C.C.C.C.C.C.C.",
"C.C.C.C.v.C.C.v.C.C.C.C.C.v b C m m m n b x / C m m n v C.C.C.C.C.C.C.C.C.C.C.C.C.C.",
"C.C.C.C.V.V.V.m.C.C.C.C.C.C.C.C.b x v n b n x x x C.C.C.C.C.C.C.C.C.C.C.C.C.C.C.C.C.",
"C.C.C.C.V.V.V.V.n.C.C.C.C.C.9.q.<.P P U R Y U P T 9.q.C.C.C.C.C.C.C.C.C.C.C.C.C.C.C.",
"C.C.C.v.m.m.V.x.z.C.C.C.C.C.w.y.9.,.y.y.y.q.y.y.,.y.y.9.C.C.C.C.C.C.C.C.C.C.C.C.C.C.",
"C.C.C.C.C.C.b.C.^ C.C.C.C.T =.,.0.t.i.u.6.6.u.i.t.9.>.*.C.C.C.C.C.C.C.C.C.C.C.C.C.C.",
"C.C.C.C.C.C.C.C.C.~ ~ C.C.n C P c.M.M.N.N.N.N.M.N.3.B Z v C.C.C.C.C.C.C.C.C.C.C.C.C.",
"C.C.C.C.C.C.C.C.C.C.C.! x C x C.r.i.e.t.t.t.t.e.i.4.C.b C v x x C.C.C.C.C.C.C.C.C.C.",
"C.C.C.C.C.C.C.C.C.C.C.v M / C.9.y.y.y.y.y.y.y.y.y.w.9.C.n C n v C.C.C.C.C.C.C.C.C.C.",
"C.C.C.C.C.C.C.C.C.C.C.h x / ( 2.y.y.y.y.y.y.y.y.y.y.q.C.C.v C.C.C.C.C.C.C.C.C.C.C.C.",
"C.C.C.C.C.C.C.C.C.C.C.C.C.&.' ) l.y.y.y.y.y.y.y.y.y.y.q.C.C.C.C.C.C.C.C.C.C.C.C.C.C.",
"C.C.C.C.C.C.C.C.C.C.C.C.C.q.y.l.l.w.y.y.y.y.y.y.y.y.y.y.9.C.C.C.C.C.C.C.C.C.C.C.C.C.",
"C.C.C.C.C.C.C.C.C.C.C.C.9.w.y.y.y.y.y.y.y.y.y.y.y.y.y.y.q.C.C.C.C.C.C.C.C.C.C.C.C.C.",
"C.C.C.C.C.C.C.C.C.C.C.C.9.y.y.y.y.y.y.y.y.y.y.y.y.y.y.y.q.C.C.C.C.C.C.C.C.C.C.C.C.C.",
"C.C.C.C.C.C.C.C.C.C.C.C.q.y.y.y.y.y.y.y.y.y.y.y.y.y.y.y.q.9.C.C.C.C.C.C.C.C.C.C.C.C.",
"C.C.C.C.C.C.C.C.C.C.C.C.q.q.y.y.w.y.y.y.y.y.y.y.y.y.y.q.q.9.C.C.C.C.C.C.C.C.C.C.C.C.",
"C.C.C.C.C.C.C.C.C.C.C.C.C.C.C.9.=.=.>.>.q.,.>.>.<.,.9.C.C.C.C.C.C.C.C.C.C.C.C.C.C.C.",
"C.C.C.C.C.C.C.C.C.C.C.C.C.C.C.C.c C Z F C.F D D c C.C.C.C.C.C.C.C.C.C.C.C.C.C.C.C.C.",
"C.C.C.C.C.C.C.C.C.C.C.C.C.C.C.Q v m A I C.L I C n W C.C.C.C.C.C.C.C.C.C.C.C.C.C.C.C.",
"C.C.C.C.C.C.C.C.C.C.C.C.C.C._ ] p.d.j.v.C.C.j.d.p.` _ C.C.C.C.C.C.C.C.C.C.C.C.C.C.C.",
"C.C.C.C.C.C.C.C.C.C.C.C.C.C.k.B.n.n.C.C.C.C.C.n.V.B.k.C.C.C.C.C.C.C.C.C.C.C.C.C.C.C."
};
